<svg width="420" height="240" viewBox="0 0 420 240" fill="none" xmlns="http://www.w3.org/2000/svg">
  <rect width="420" height="240" rx="26" fill="#132C38"/>
  <rect x="0" y="0" width="420" height="124" fill="url(#sky)"/>
  <rect x="0" y="124" width="420" height="18" fill="#58A846"/>
  <rect x="0" y="142" width="420" height="98" fill="#6D4527"/>

  <rect x="142" y="88" width="136" height="82" fill="#74818A"/>
  <rect x="158" y="102" width="104" height="68" fill="#86949D"/>
  <rect x="126" y="74" width="168" height="18" fill="#688E77"/>
  <rect x="142" y="58" width="136" height="16" fill="#7FA99D"/>
  <rect x="194" y="124" width="28" height="46" fill="#312C31"/>
  <rect x="228" y="116" width="22" height="24" fill="#C7D8DE"/>
  <rect x="228" y="144" width="22" height="18" fill="#C7D8DE"/>

  <path d="M210 20V48" stroke="#EAD67B" stroke-width="4" stroke-dasharray="6 6"/>
  <path d="M94 124H132" stroke="#EAD67B" stroke-width="4" stroke-dasharray="6 6"/>
  <path d="M288 124H326" stroke="#EAD67B" stroke-width="4" stroke-dasharray="6 6"/>
  <path d="M210 180V210" stroke="#EAD67B" stroke-width="4" stroke-dasharray="6 6"/>

  <circle cx="210" cy="18" r="16" fill="#F0D76E"/>
  <circle cx="92" cy="124" r="16" fill="#F0D76E"/>
  <circle cx="328" cy="124" r="16" fill="#F0D76E"/>
  <circle cx="210" cy="212" r="16" fill="#F0D76E"/>
  <circle cx="318" cy="44" r="14" fill="#9FE06A"/>

  <text x="204" y="24" fill="#132C38" font-family="monospace" font-size="16" font-weight="700">1</text>
  <text x="86" y="130" fill="#132C38" font-family="monospace" font-size="16" font-weight="700">2</text>
  <text x="322" y="130" fill="#132C38" font-family="monospace" font-size="16" font-weight="700">3</text>
  <text x="204" y="218" fill="#132C38" font-family="monospace" font-size="16" font-weight="700">4</text>
  <text x="312" y="49" fill="#132C38" font-family="monospace" font-size="14" font-weight="700">5</text>

  <defs>
    <linearGradient id="sky" x1="210" y1="0" x2="210" y2="124" gradientUnits="userSpaceOnUse">
      <stop stop-color="#6FB6E2"/>
      <stop offset="1" stop-color="#284E63"/>
    </linearGradient>
  </defs>
</svg>
